<?xml version="1.0" encoding="utf-8"?>
<!-- Generator: Adobe Illustrator 26.0.2, SVG Export Plug-In . SVG Version: 6.00 Build 0)  -->
<svg version="1.1" id="Ebene_1" xmlns="http://www.w3.org/2000/svg" xmlns:xlink="http://www.w3.org/1999/xlink" x="0px" y="0px"
	 viewBox="0 0 14.7 13.4" style="enable-background:new 0 0 14.7 13.4;" xml:space="preserve">
<style type="text/css">
	.st0{fill:#222222;}
</style>
<path class="st0" d="M7.9,8.7L6.2,7.1l0,0c1.2-1.3,2-2.8,2.5-4.4h2V1.3H6V0H4.7v1.3H0v1.3h7.5C7,4,6.3,5.2,5.4,6.3
	C4.7,5.6,4.2,4.8,3.8,4H2.5c0.5,1.1,1.2,2.1,2,3.1l-3.4,3.4L2,11.4L5.4,8l2.1,2.1C7.4,10.1,7.9,8.7,7.9,8.7z M11.7,5.4h-1.3l-3,8
	h1.3l0.7-2h3.2l0.8,2h1.3L11.7,5.4z M10,10L11,7.1l1.1,2.9C12.1,10,10,10,10,10z"/>
</svg>
