<?xml version="1.0" encoding="utf-8"?>
<svg version="1.1" xmlns="http://www.w3.org/2000/svg" xmlns:xlink="http://www.w3.org/1999/xlink" x="0px" y="0px" viewBox="0 0 19 13" style="enable-background:new 0 0 19 13;" xml:space="preserve">
	<style type="text/css">
		.st0 {
			fill-rule: evenodd;
			clip-rule: evenodd;
			fill: #222222;
		}
	</style>
	<path
		class="st0"
		d="M11.4,6.2C11.4,6.2,11.4,6.2,11.4,6.2L9.9,7.7L7,10.6L1.7,5.3c-0.4-0.4-1-0.4-1.4,0c-0.4,0.4-0.4,1,0,1.4l6,6
	c0.4,0.4,1,0.4,1.4,0l4.1-4.1l1.9-1.9c0,0,0,0,0,0L16,4.4l-1.9-0.9L11.4,6.2z M17.9,1.1c-0.4-0.4-1-0.4-1.4,0l-2.4,2.4L16,4.4
	l1.9-1.9C18.3,2.1,18.3,1.5,17.9,1.1z"/>
</svg>
